<?xml version="1.0" encoding="UTF-8" standalone="no"?>
<svg
   xmlns:dc="http://purl.org/dc/elements/1.1/"
   xmlns:cc="http://creativecommons.org/ns#"
   xmlns:rdf="http://www.w3.org/1999/02/22-rdf-syntax-ns#"
   xmlns:svg="http://www.w3.org/2000/svg"
   xmlns="http://www.w3.org/2000/svg"
   viewBox="0 0 1488.1875 1052.3625"
   height="1052.3625"
   width="1488.1875"
   xml:space="preserve"
   version="1.1"
   id="svg2"><metadata
     id="metadata8"><rdf:RDF><cc:Work
         rdf:about=""><dc:format>image/svg+xml</dc:format><dc:type
           rdf:resource="http://purl.org/dc/dcmitype/StillImage" /><dc:title></dc:title></cc:Work></rdf:RDF></metadata><defs
     id="defs6"><clipPath
       id="clipPath16"
       clipPathUnits="userSpaceOnUse"><path
         id="path18"
         d="m 0,841.89 1190.55,0 L 1190.55,0 0,0 0,841.89 Z" /></clipPath><clipPath
       id="clipPath32"
       clipPathUnits="userSpaceOnUse"><path
         id="path34"
         d="M 333.482,470.969 C 189.813,327.299 233.689,223.022 437.81,223.022 l 0,0 c 204.12,0 456.549,104.277 600.218,247.947 l 0,0 c 143.671,143.671 99.796,247.947 -104.324,247.947 l 0,0 c -204.12,0 -456.551,-104.276 -600.222,-247.947 m 37.746,0 C 493.027,592.768 713.709,681.17 895.958,681.17 l 0,0 c 182.249,0 226.124,-88.402 104.325,-210.201 l 0,0 C 878.484,349.17 657.804,260.768 475.555,260.768 l 0,0 c -182.249,0 -226.125,88.402 -104.327,210.201" /></clipPath><radialGradient
       id="radialGradient40"
       spreadMethod="pad"
       gradientTransform="matrix(421.94974,0,-298.36353,-298.36353,685.75568,470.9693)"
       gradientUnits="userSpaceOnUse"
       r="1"
       cy="0"
       cx="0"
       fy="0"
       fx="0"><stop
         id="stop42"
         offset="0"
         style="stop-opacity:1;stop-color:#f6eb15" /><stop
         id="stop44"
         offset="0.72043"
         style="stop-opacity:1;stop-color:#f6eb15" /><stop
         id="stop46"
         offset="0.768817"
         style="stop-opacity:1;stop-color:#ee2224" /><stop
         id="stop48"
         offset="0.81526456"
         style="stop-opacity:1;stop-color:#36479d" /><stop
         id="stop50"
         offset="1"
         style="stop-opacity:1;stop-color:#36479d" /></radialGradient><clipPath
       id="clipPath58"
       clipPathUnits="userSpaceOnUse"><path
         id="path60"
         d="M 371.228,470.969 C 249.429,349.17 293.305,260.768 475.555,260.768 l 0,0 c 182.249,0 402.929,88.402 524.727,210.201 l 0,0 c 121.8,121.799 77.924,210.201 -104.324,210.201 l 0,0 c -182.249,0 -402.931,-88.402 -524.73,-210.201 m 37.745,0 c 99.928,99.928 288.862,172.456 449.239,172.456 l 0,0 c 160.377,0 204.252,-72.528 104.325,-172.456 l 0,0 C 862.609,371.041 673.678,298.514 513.301,298.514 l 0,0 c -160.379,0 -204.255,72.527 -104.328,172.455" /></clipPath><radialGradient
       id="radialGradient66"
       spreadMethod="pad"
       gradientTransform="matrix(380.64655,142.38811,57.719887,-154.30272,686.84772,472.06131)"
       gradientUnits="userSpaceOnUse"
       r="1"
       cy="0"
       cx="0"
       fy="0"
       fx="0"><stop
         id="stop68"
         offset="0"
         style="stop-opacity:1;stop-color:#f6eb15" /><stop
         id="stop70"
         offset="0.833333"
         style="stop-opacity:1;stop-color:#f6eb15" /><stop
         id="stop72"
         offset="0.913979"
         style="stop-opacity:1;stop-color:#ee2224" /><stop
         id="stop74"
         offset="0.96086178"
         style="stop-opacity:1;stop-color:#36479d" /><stop
         id="stop76"
         offset="1"
         style="stop-opacity:1;stop-color:#36479d" /></radialGradient><clipPath
       id="clipPath84"
       clipPathUnits="userSpaceOnUse"><path
         id="path86"
         d="M 408.974,470.969 C 309.046,371.041 352.923,298.514 513.301,298.514 l 0,0 c 160.378,0 349.308,72.527 449.236,172.455 l 0,0 c 99.928,99.928 56.053,172.456 -104.325,172.456 l 0,0 c -160.377,0 -349.311,-72.528 -449.238,-172.456 m 37.745,0 c 76.797,76.796 237.474,134.71 373.748,134.71 l 0,0 c 136.271,0 181.121,-57.914 104.324,-134.71 l 0,0 C 847.995,394.173 687.317,336.259 551.047,336.259 l 0,0 c -136.274,0 -181.124,57.914 -104.328,134.71" /></clipPath><radialGradient
       id="radialGradient92"
       spreadMethod="pad"
       gradientTransform="matrix(328.3385,100.52312,41.879715,-136.79164,684.8349,470.9693)"
       gradientUnits="userSpaceOnUse"
       r="1"
       cy="0"
       cx="0"
       fy="0"
       fx="0"><stop
         id="stop94"
         offset="0"
         style="stop-opacity:1;stop-color:#f6eb15" /><stop
         id="stop96"
         offset="0.822581"
         style="stop-opacity:1;stop-color:#f6eb15" /><stop
         id="stop98"
         offset="0.913979"
         style="stop-opacity:1;stop-color:#ee2224" /><stop
         id="stop100"
         offset="0.9312617"
         style="stop-opacity:1;stop-color:#36479d" /><stop
         id="stop102"
         offset="1"
         style="stop-opacity:1;stop-color:#36479d" /></radialGradient><clipPath
       id="clipPath110"
       clipPathUnits="userSpaceOnUse"><path
         id="path112"
         d="m 446.719,470.969 c -76.796,-76.796 -31.945,-134.71 104.328,-134.71 l 0,0 c 136.27,0 296.949,57.914 373.744,134.71 l 0,0 c 76.797,76.796 31.947,134.71 -104.324,134.71 l 0,0 c -136.273,0 -296.951,-57.914 -373.748,-134.71 m 37.746,0 c 53.552,53.552 187.085,96.964 298.255,96.964 l 0,0 c 111.17,0 157.878,-43.412 104.326,-96.964 l 0,0 C 833.495,417.417 699.961,374.005 588.792,374.005 l 0,0 c -111.17,0 -157.878,43.412 -104.327,96.964" /></clipPath><radialGradient
       id="radialGradient118"
       spreadMethod="pad"
       gradientTransform="matrix(281.82059,82.526848,30.993725,-105.84034,689.53802,473.48541)"
       gradientUnits="userSpaceOnUse"
       r="1"
       cy="0"
       cx="0"
       fy="0"
       fx="0"><stop
         id="stop120"
         offset="0"
         style="stop-opacity:1;stop-color:#f6eb15" /><stop
         id="stop122"
         offset="0.784946"
         style="stop-opacity:1;stop-color:#f6eb15" /><stop
         id="stop124"
         offset="0.913979"
         style="stop-opacity:1;stop-color:#ee2224" /><stop
         id="stop126"
         offset="0.94051354"
         style="stop-opacity:1;stop-color:#36479d" /><stop
         id="stop128"
         offset="1"
         style="stop-opacity:1;stop-color:#36479d" /></radialGradient><clipPath
       id="clipPath136"
       clipPathUnits="userSpaceOnUse"><path
         id="path138"
         d="m 0,841.89 1190.55,0 L 1190.55,0 0,0 0,841.89 Z" /></clipPath><clipPath
       id="clipPath164"
       clipPathUnits="userSpaceOnUse"><path
         id="path166"
         d="m 293.094,564.958 -0.838,-1.27 C 274.146,536.306 222.975,453.379 213.652,438.187 l 0,0 -1.572,-2.56 42.182,-22.557 4.002,8.212 c 3.374,6.94 7.46,15.338 9.299,18.832 l 0,0 55.261,2.991 18.045,-29.785 43.723,24.765 -1.984,2.582 c -4.535,5.9 -22.979,33.284 -42.506,62.276 l 0,0 c -15.231,22.617 -30.982,46.004 -41.214,60.794 l 0,0 -0.844,1.221 -4.95,0 z m 1.641,-67.678 c 2.047,-4.06 4.583,-8.824 7.218,-13.774 l 0,0 c 1.567,-2.943 3.151,-5.921 4.654,-8.79 l 0,0 -23.682,-1.209 c 3.71,7.611 8.113,16.52 11.81,23.773" /></clipPath><radialGradient
       id="radialGradient172"
       spreadMethod="pad"
       gradientTransform="matrix(-58.56274,-58.56274,-58.56274,58.56274,298.3363,489.01376)"
       gradientUnits="userSpaceOnUse"
       r="1"
       cy="0"
       cx="0"
       fy="0"
       fx="0"><stop
         id="stop174"
         offset="0"
         style="stop-opacity:1;stop-color:#cfde74" /><stop
         id="stop176"
         offset="0.236559"
         style="stop-opacity:1;stop-color:#a5ce63" /><stop
         id="stop178"
         offset="0.569892"
         style="stop-opacity:1;stop-color:#3bb574" /><stop
         id="stop180"
         offset="1"
         style="stop-opacity:1;stop-color:#026ca6" /></radialGradient><clipPath
       id="clipPath188"
       clipPathUnits="userSpaceOnUse"><path
         id="path190"
         d="m 0,841.89 1190.55,0 L 1190.55,0 0,0 0,841.89 Z" /></clipPath><clipPath
       id="clipPath200"
       clipPathUnits="userSpaceOnUse"><path
         id="path202"
         d="m 532.2,564.948 c -6.978,-0.565 -69.925,-2.994 -80.318,-2.994 l 0,0 -2.93,0 0.1,-2.929 c 0.181,-5.223 0.563,-49.77 0.563,-53.599 l 0,0 0,-25.159 c 0,-21.474 -0.148,-47.012 -0.56,-54.29 l 0,0 -0.17,-2.991 2.997,0 c 5.294,0 28.203,-0.567 48.414,-1.067 l 0,0 c 17.59,-0.435 32.782,-0.811 35.888,-0.811 l 0,0 2.896,0 -0.887,38.202 -3.001,-0.257 c -3.581,-0.304 -11.072,-0.459 -22.268,-0.459 l 0,0 c -5.756,0 -11.302,0.041 -15.128,0.069 l 0,0 -1.59,0.009 0,16.658 c 3.052,-0.06 7.79,-0.181 12.695,-0.306 l 0,0 c 7.775,-0.197 15.969,-0.405 18.645,-0.405 l 0,0 2.884,0 -0.675,35.964 -3.029,-0.274 c -7.119,-0.647 -23.477,-1.397 -30.52,-1.615 l 0,0 0,18.734 c 2.651,0.06 6.727,0.173 11.255,0.296 l 0,0 c 9.653,0.264 21.664,0.591 25.717,0.591 l 0,0 2.901,0 -0.894,36.877 -2.985,-0.244 z" /></clipPath><radialGradient
       id="radialGradient208"
       spreadMethod="pad"
       gradientTransform="matrix(-42.496441,-42.496441,-42.496441,42.496441,493.98285,493.15009)"
       gradientUnits="userSpaceOnUse"
       r="1"
       cy="0"
       cx="0"
       fy="0"
       fx="0"><stop
         id="stop210"
         offset="0"
         style="stop-opacity:1;stop-color:#cfde74" /><stop
         id="stop212"
         offset="0.236559"
         style="stop-opacity:1;stop-color:#a5ce63" /><stop
         id="stop214"
         offset="0.569892"
         style="stop-opacity:1;stop-color:#3bb574" /><stop
         id="stop216"
         offset="1"
         style="stop-opacity:1;stop-color:#026ca6" /></radialGradient><clipPath
       id="clipPath224"
       clipPathUnits="userSpaceOnUse"><path
         id="path226"
         d="m 0,841.89 1190.55,0 L 1190.55,0 0,0 0,841.89 Z" /></clipPath><clipPath
       id="clipPath236"
       clipPathUnits="userSpaceOnUse"><path
         id="path238"
         d="m 157.298,555.13 0,-2.832 c 0,-1.28 0.115,-9.879 0.242,-19.394 l 0,0 c 0.157,-11.745 0.332,-24.887 0.332,-27.311 l 0,0 0,-20.968 c 0,-14.107 -0.386,-59.6 -0.574,-67.607 l 0,0 -0.065,-2.897 48.52,0 -0.295,3.099 c -0.234,2.458 -0.368,12.782 -0.368,28.325 l 0,0 0,2.767 c 47.776,8.69 69.198,37.059 69.198,61.668 l 0,0 c 0,19.864 -13.491,34.175 -38.006,40.304 l 0,0 c -16.74,4.035 -41.549,4.846 -76.153,4.846 l 0,0 -2.831,0 z m 47.792,-32.638 c 17.881,-2.167 20.264,-10.605 20.264,-17.849 l 0,0 c 0,-12.697 -10.961,-20.859 -20.264,-23.544 l 0,0 0,41.393 z" /></clipPath><radialGradient
       id="radialGradient244"
       spreadMethod="pad"
       gradientTransform="matrix(-45.815899,-45.815899,-45.815899,45.815899,215.76004,484.62497)"
       gradientUnits="userSpaceOnUse"
       r="1"
       cy="0"
       cx="0"
       fy="0"
       fx="0"><stop
         id="stop246"
         offset="0"
         style="stop-opacity:1;stop-color:#cfde74" /><stop
         id="stop248"
         offset="0.236559"
         style="stop-opacity:1;stop-color:#a5ce63" /><stop
         id="stop250"
         offset="0.569892"
         style="stop-opacity:1;stop-color:#3bb574" /><stop
         id="stop252"
         offset="1"
         style="stop-opacity:1;stop-color:#026ca6" /></radialGradient><clipPath
       id="clipPath260"
       clipPathUnits="userSpaceOnUse"><path
         id="path262"
         d="m 0,841.89 1190.55,0 L 1190.55,0 0,0 0,841.89 Z" /></clipPath><clipPath
       id="clipPath272"
       clipPathUnits="userSpaceOnUse"><path
         id="path274"
         d="m 457.592,555.241 c -68.69,-5.764 -103.608,-41.285 -107.741,-73.929 l 0,0 c -1.895,-14.966 3.686,-30.546 15.31,-42.744 l 0,0 c 14.121,-14.815 36.795,-24.569 65.575,-28.215 l 0,0 c 9.296,-1.175 16.587,-1.271 23.018,-1.356 l 0,0 2.67,-0.033 2.871,40.433 -4.071,0.176 c -4.518,0.19 -10.141,0.43 -17.031,1.302 l 0,0 c -11.43,1.446 -21.276,5.33 -27.725,10.933 l 0,0 c -5.863,5.098 -8.656,11.36 -7.861,17.631 l 0,0 c 2.408,19.033 23.972,30.975 59.16,32.764 l 0,0 2.972,0.152 -4.375,43.119 -2.772,-0.233 z" /></clipPath><radialGradient
       id="radialGradient280"
       spreadMethod="pad"
       gradientTransform="matrix(-47.003921,-47.003921,-46.991978,46.991978,408.51321,487.60242)"
       gradientUnits="userSpaceOnUse"
       r="1"
       cy="0"
       cx="0"
       fy="0"
       fx="0"><stop
         id="stop282"
         offset="0"
         style="stop-opacity:1;stop-color:#cfde74" /><stop
         id="stop284"
         offset="0.236559"
         style="stop-opacity:1;stop-color:#a5ce63" /><stop
         id="stop286"
         offset="0.569892"
         style="stop-opacity:1;stop-color:#3bb574" /><stop
         id="stop288"
         offset="1"
         style="stop-opacity:1;stop-color:#026ca6" /></radialGradient><clipPath
       id="clipPath296"
       clipPathUnits="userSpaceOnUse"><path
         id="path298"
         d="m 0,841.89 1190.55,0 L 1190.55,0 0,0 0,841.89 Z" /></clipPath><clipPath
       id="clipPath308"
       clipPathUnits="userSpaceOnUse"><path
         id="path310"
         d="M 151.097,574.487 C 88.322,569.029 54.45,538.339 54.45,512.235 l 0,0 c 0,-20.478 16.807,-32.842 33.254,-42.239 l 0,0 c 17.884,-10.155 21.499,-12.811 21.499,-15.789 l 0,0 c 0,-7.371 -19.263,-13.837 -41.222,-13.837 l 0,0 c -1.123,0 -2.243,0.019 -3.36,0.052 l 0,0 -3.417,0.106 7.276,-46.067 2.696,0.31 c 74.214,8.542 100.547,42.777 100.547,69.498 l 0,0 c 0,23.478 -23.038,34.78 -34.106,40.211 l 0,0 -1.357,0.667 c -12.321,6.063 -19.759,9.721 -19.759,13.405 l 0,0 c 0,5.114 7.141,11.211 41.159,11.211 l 0,0 3.325,0 -7.267,44.953 -2.621,-0.229 z" /></clipPath><radialGradient
       id="radialGradient316"
       spreadMethod="pad"
       gradientTransform="matrix(-53.761482,-53.761482,-53.761482,53.761482,113.08633,484.5881)"
       gradientUnits="userSpaceOnUse"
       r="1"
       cy="0"
       cx="0"
       fy="0"
       fx="0"><stop
         id="stop318"
         offset="0"
         style="stop-opacity:1;stop-color:#cfde74" /><stop
         id="stop320"
         offset="0.236559"
         style="stop-opacity:1;stop-color:#a5ce63" /><stop
         id="stop322"
         offset="0.569892"
         style="stop-opacity:1;stop-color:#3bb574" /><stop
         id="stop324"
         offset="1"
         style="stop-opacity:1;stop-color:#026ca6" /></radialGradient><clipPath
       id="clipPath332"
       clipPathUnits="userSpaceOnUse"><path
         id="path334"
         d="m 0,841.89 1190.55,0 L 1190.55,0 0,0 0,841.89 Z" /></clipPath><clipPath
       id="clipPath344"
       clipPathUnits="userSpaceOnUse"><path
         id="path346"
         d="M 554.374,632.771 578.321,374.14 c 3.425,-0.087 6.912,-0.135 10.471,-0.135 l 0,0 c 38.426,0 79.522,5.192 119.066,14.192 l 0,0 0,277.284 -153.484,-32.71 z" /></clipPath><radialGradient
       id="radialGradient352"
       spreadMethod="pad"
       gradientTransform="matrix(-148.61154,-148.61154,-148.61154,148.61154,612.7179,392.09436)"
       gradientUnits="userSpaceOnUse"
       r="1"
       cy="0"
       cx="0"
       fy="0"
       fx="0"><stop
         id="stop354"
         offset="0"
         style="stop-opacity:1;stop-color:#cfde74" /><stop
         id="stop356"
         offset="0.236559"
         style="stop-opacity:1;stop-color:#a5ce63" /><stop
         id="stop358"
         offset="0.569892"
         style="stop-opacity:1;stop-color:#3bb574" /><stop
         id="stop360"
         offset="1"
         style="stop-opacity:1;stop-color:#026ca6" /></radialGradient><clipPath
       id="clipPath368"
       clipPathUnits="userSpaceOnUse"><path
         id="path370"
         d="m 0,841.89 1190.55,0 L 1190.55,0 0,0 0,841.89 Z" /></clipPath><clipPath
       id="clipPath388"
       clipPathUnits="userSpaceOnUse"><path
         id="path390"
         d="m 904.533,617.324 -0.664,-1.891 C 893.546,586.118 866.57,495.369 848.716,435.317 l 0,0 C 840.298,407 833.648,384.635 832.167,380.248 l 0,0 -0.94,-2.79 89.877,-26.504 0.818,2.683 c 2.713,8.901 0.394,35.28 -2.056,63.205 l 0,0 c -1.445,16.458 -2.927,33.305 -3.1,44.681 l 0,0 c 9.66,-20.655 30.547,-63.06 46.562,-94.303 l 0,0 0.789,-1.541 7.434,0 0.804,1.471 c 16.231,29.61 41.04,78.047 51.235,98.143 l 0,0 c 0.335,-4.822 0.689,-11.002 1.073,-17.642 l 0,0 c 1.717,-29.908 4.315,-75.102 10.102,-94.018 l 0,0 0.896,-2.933 82.346,32.648 -0.95,2.587 c -2.883,7.874 -13.844,40.192 -26.538,77.614 l 0,0 c -17.724,52.255 -39.78,117.287 -50.325,146.686 l 0,0 -0.674,1.874 -7.8,0 -0.77,-1.601 c -6.306,-13.098 -17.042,-35.817 -27.89,-58.768 l 0,0 c -11.54,-24.412 -23.415,-49.547 -29.98,-63.122 l 0,0 c -2.694,5.719 -6.534,13.884 -11.031,23.449 l 0,0 c -14.931,31.754 -37.495,79.743 -48.928,103.649 l 0,0 -0.77,1.608 -7.818,0 z" /></clipPath><radialGradient
       id="radialGradient396"
       spreadMethod="pad"
       gradientTransform="matrix(-97.893944,-97.893944,-97.893944,97.893944,974.61737,484.01221)"
       gradientUnits="userSpaceOnUse"
       r="1"
       cy="0"
       cx="0"
       fy="0"
       fx="0"><stop
         id="stop398"
         offset="0"
         style="stop-opacity:1;stop-color:#cfde74" /><stop
         id="stop400"
         offset="0.236559"
         style="stop-opacity:1;stop-color:#a5ce63" /><stop
         id="stop402"
         offset="0.569892"
         style="stop-opacity:1;stop-color:#3bb574" /><stop
         id="stop404"
         offset="1"
         style="stop-opacity:1;stop-color:#026ca6" /></radialGradient><clipPath
       id="clipPath412"
       clipPathUnits="userSpaceOnUse"><path
         id="path414"
         d="m 0,841.89 1190.55,0 L 1190.55,0 0,0 0,841.89 Z" /></clipPath><clipPath
       id="clipPath424"
       clipPathUnits="userSpaceOnUse"><path
         id="path426"
         d="m 753.447,603.389 -0.811,-1.453 C 728.281,558.288 671.314,441.249 646.988,391.272 l 0,0 c -4.6,-9.453 -7.862,-16.154 -9.266,-18.992 l 0,0 -1.12,-2.259 61.972,-40.176 1.268,3.219 c 2.141,5.429 4.751,12.14 7.33,18.771 l 0,0 c 4.199,10.799 8.518,21.912 10.28,26.098 l 0,0 80.924,4.999 c 1.36,-2.705 3.896,-7.951 6.741,-13.826 l 0,0 c 5.337,-11.028 12.646,-26.131 17.718,-35.906 l 0,0 1.485,-2.86 63.056,43.897 -1.394,2.278 c -5.495,8.986 -24.583,44.672 -46.691,85.998 l 0,0 c -26.599,49.72 -56.745,106.076 -75.709,139.444 l 0,0 -0.814,1.432 -9.321,0 z m 0.04,-127.755 c 1.21,2.966 2.382,5.844 3.498,8.589 l 0,0 c 2.514,-6.109 5.577,-13.163 8.773,-20.512 l 0,0 c 3.663,-8.435 7.437,-17.123 10.869,-25.488 l 0,0 -39.113,-2.314 c 4.942,12.655 10.769,26.957 15.973,39.725" /></clipPath><radialGradient
       id="radialGradient432"
       spreadMethod="pad"
       gradientTransform="matrix(-92.774383,-92.774383,-92.774383,92.774383,761.98877,466.61734)"
       gradientUnits="userSpaceOnUse"
       r="1"
       cy="0"
       cx="0"
       fy="0"
       fx="0"><stop
         id="stop434"
         offset="0"
         style="stop-opacity:1;stop-color:#cfde74" /><stop
         id="stop436"
         offset="0.236559"
         style="stop-opacity:1;stop-color:#a5ce63" /><stop
         id="stop438"
         offset="0.569892"
         style="stop-opacity:1;stop-color:#3bb574" /><stop
         id="stop440"
         offset="1"
         style="stop-opacity:1;stop-color:#026ca6" /></radialGradient><clipPath
       id="clipPath448"
       clipPathUnits="userSpaceOnUse"><path
         id="path450"
         d="m 0,841.89 1190.55,0 L 1190.55,0 0,0 0,841.89 Z" /></clipPath><clipPath
       id="clipPath460"
       clipPathUnits="userSpaceOnUse"><path
         id="path462"
         d="m 369.559,268.191 c 0,0 133.15,-126.347 220.653,-126.347 l 0,0 c 1.334,0 2.653,0.03 3.965,0.09 l 0,0 c 62.245,2.825 87.805,80.867 97.364,125.541 l 0,0 C 656.243,255.816 620.599,246.259 585.264,239.01 l 0,0 c -1.979,-8.823 -6.411,-15.776 -15.494,-15.776 l 0,0 c -1.592,0 -3.322,0.213 -5.211,0.665 l 0,0 c -31.451,7.549 -83.032,130.84 -83.032,130.84 l 0,0 -111.968,-86.548 z" /></clipPath><radialGradient
       id="radialGradient468"
       spreadMethod="pad"
       gradientTransform="matrix(-148.05826,-148.05826,-148.05826,148.05826,611.06897,387.86392)"
       gradientUnits="userSpaceOnUse"
       r="1"
       cy="0"
       cx="0"
       fy="0"
       fx="0"><stop
         id="stop470"
         offset="0"
         style="stop-opacity:1;stop-color:#cfde74" /><stop
         id="stop472"
         offset="0.236559"
         style="stop-opacity:1;stop-color:#a5ce63" /><stop
         id="stop474"
         offset="0.569892"
         style="stop-opacity:1;stop-color:#3bb574" /><stop
         id="stop476"
         offset="1"
         style="stop-opacity:1;stop-color:#026ca6" /></radialGradient><clipPath
       id="clipPath484"
       clipPathUnits="userSpaceOnUse"><path
         id="path486"
         d="m 0,841.89 1190.55,0 L 1190.55,0 0,0 0,841.89 Z" /></clipPath></defs><g
     transform="matrix(1.25,0,0,-1.25,0,1052.3625)"
     id="g10"><g
       id="g12"><g
         clip-path="url(#clipPath16)"
         id="g14"><g
           transform="translate(588.9706,205.0286)"
           id="g20"><path
             id="path22"
             style="fill:#231f20;fill-opacity:1;fill-rule:nonzero;stroke:none"
             d="M 0,0 C -31.452,7.548 -83.032,130.839 -83.032,130.839 L -195,44.292 c 0,0 137.236,-130.225 224.618,-126.258 C 117,-78 132.097,74.226 132.097,74.226 L 20.129,51.581 C 20.129,51.581 31.452,-7.548 0,0" /></g><g
           transform="translate(578.9062,613.9001)"
           id="g24"><path
             id="path26"
             style="fill:#231f20;fill-opacity:1;fill-rule:nonzero;stroke:none"
             d="m 0,0 25.161,-271.742 128.323,0 0,304.452 L 0,0 Z" /></g></g></g><g
       id="g28"><g
         clip-path="url(#clipPath32)"
         id="g30"><g
           id="g36"><g
             id="g38"><path
               id="path52"
               style="fill:url(#radialGradient40);stroke:none"
               d="M 333.482,470.969 C 189.813,327.299 233.689,223.022 437.81,223.022 l 0,0 c 204.12,0 456.549,104.277 600.218,247.947 l 0,0 c 143.671,143.671 99.796,247.947 -104.324,247.947 l 0,0 c -204.12,0 -456.551,-104.276 -600.222,-247.947 m 37.746,0 C 493.027,592.768 713.709,681.17 895.958,681.17 l 0,0 c 182.249,0 226.124,-88.402 104.325,-210.201 l 0,0 C 878.484,349.17 657.804,260.768 475.555,260.768 l 0,0 c -182.249,0 -226.125,88.402 -104.327,210.201" /></g></g></g></g><g
       id="g54"><g
         clip-path="url(#clipPath58)"
         id="g56"><g
           id="g62"><g
             id="g64"><path
               id="path78"
               style="fill:url(#radialGradient66);stroke:none"
               d="M 371.228,470.969 C 249.429,349.17 293.305,260.768 475.555,260.768 l 0,0 c 182.249,0 402.929,88.402 524.727,210.201 l 0,0 c 121.8,121.799 77.924,210.201 -104.324,210.201 l 0,0 c -182.249,0 -402.931,-88.402 -524.73,-210.201 m 37.745,0 c 99.928,99.928 288.862,172.456 449.239,172.456 l 0,0 c 160.377,0 204.252,-72.528 104.325,-172.456 l 0,0 C 862.609,371.041 673.678,298.514 513.301,298.514 l 0,0 c -160.379,0 -204.255,72.527 -104.328,172.455" /></g></g></g></g><g
       id="g80"><g
         clip-path="url(#clipPath84)"
         id="g82"><g
           id="g88"><g
             id="g90"><path
               id="path104"
               style="fill:url(#radialGradient92);stroke:none"
               d="M 408.974,470.969 C 309.046,371.041 352.923,298.514 513.301,298.514 l 0,0 c 160.378,0 349.308,72.527 449.236,172.455 l 0,0 c 99.928,99.928 56.053,172.456 -104.325,172.456 l 0,0 c -160.377,0 -349.311,-72.528 -449.238,-172.456 m 37.745,0 c 76.797,76.796 237.474,134.71 373.748,134.71 l 0,0 c 136.271,0 181.121,-57.914 104.324,-134.71 l 0,0 C 847.995,394.173 687.317,336.259 551.047,336.259 l 0,0 c -136.274,0 -181.124,57.914 -104.328,134.71" /></g></g></g></g><g
       id="g106"><g
         clip-path="url(#clipPath110)"
         id="g108"><g
           id="g114"><g
             id="g116"><path
               id="path130"
               style="fill:url(#radialGradient118);stroke:none"
               d="m 446.719,470.969 c -76.796,-76.796 -31.945,-134.71 104.328,-134.71 l 0,0 c 136.27,0 296.949,57.914 373.744,134.71 l 0,0 c 76.797,76.796 31.947,134.71 -104.324,134.71 l 0,0 c -136.273,0 -296.951,-57.914 -373.748,-134.71 m 37.746,0 c 53.552,53.552 187.085,96.964 298.255,96.964 l 0,0 c 111.17,0 157.878,-43.412 104.326,-96.964 l 0,0 C 833.495,417.417 699.961,374.005 588.792,374.005 l 0,0 c -111.17,0 -157.878,43.412 -104.327,96.964" /></g></g></g></g><g
       id="g132"><g
         clip-path="url(#clipPath136)"
         id="g134"><g
           transform="translate(335.6766,453.2436)"
           id="g140"><path
             id="path142"
             style="fill:#231f20;fill-opacity:1;fill-rule:nonzero;stroke:none"
             d="M 0,0 C -5.444,10.622 -12.833,23.854 -16.334,31.494 -21,22.549 -27.805,8.758 -32.86,-1.678 L 0,0 Z m -95.08,-35.408 c 5.833,9.503 59.691,96.906 78.552,125.42 l 1.945,0 C 8.749,56.28 61.053,-22.549 69.22,-33.173 l -38.499,-21.804 -17.499,28.886 -58.526,-3.167 c -1.556,-2.61 -8.556,-17.145 -12.833,-25.905 l -36.943,19.755 z" /></g><g
           transform="translate(560.7159,405.0678)"
           id="g144"><path
             id="path146"
             style="fill:#231f20;fill-opacity:1;fill-rule:nonzero;stroke:none"
             d="m 0,0 c -6.759,0 -74.539,1.878 -84.302,1.878 0.563,9.951 0.563,50.131 0.563,54.449 l 0,25.16 c 0,3.003 -0.375,48.253 -0.563,53.697 10.514,0 73.599,2.44 80.546,3.004 l 0.751,-30.98 c -6.947,0 -36.424,-0.938 -39.803,-0.938 l 0,-24.408 c 3.754,0 25.347,0.939 33.607,1.689 L -8.637,53.51 c -5.07,0 -30.041,0.751 -34.171,0.751 l 0,-22.342 c 4.881,0 33.232,-0.376 42.057,0.375 L 0,0 Z" /></g><g
           transform="translate(226.7911,458.7007)"
           id="g148"><path
             id="path150"
             style="fill:#231f20;fill-opacity:1;fill-rule:nonzero;stroke:none"
             d="M 0,0 C 11.056,1.716 25.926,11.247 25.926,27.07 25.926,37.745 20.396,46.513 0,48.039 L 0,0 Z m -42.129,-60.62 c 0.191,8.197 0.572,54.138 0.572,67.674 l 0,20.968 c 0,4.386 -0.572,43.845 -0.572,46.705 36.41,0 59.667,-0.953 75.488,-4.765 C 52.423,65.195 69.198,53.948 69.198,32.408 69.198,7.626 46.132,-19.254 0,-26.879 l 0,-5.147 c 0,-3.812 0,-24.591 0.381,-28.594 l -42.51,0 z" /></g><g
           transform="translate(478.3233,392.9556)"
           id="g152"><path
             id="path154"
             style="fill:#231f20;fill-opacity:1;fill-rule:nonzero;stroke:none"
             d="m 0,0 c -6.772,0.088 -13.734,0.202 -22.698,1.337 -62.564,7.92 -81.643,42.438 -78.433,67.792 3.976,31.41 37.592,65.795 105.169,71.465 l 3.794,-37.39 C -33.323,101.11 -51.741,85.753 -53.992,67.968 -55.837,53.4 -41.323,39.451 -15.954,36.24 -8.325,35.274 -2.15,35.069 2.475,34.868 L 0,0 Z" /></g><g
           transform="translate(89.0673,418.7224)"
           id="g156"><path
             id="path158"
             style="fill:#231f20;fill-opacity:1;fill-rule:nonzero;stroke:none"
             d="m 0,0 c 22.697,-0.702 47.5,5.615 47.5,16.613 0,4.68 -3.979,7.488 -22.931,18.252 -14.741,8.422 -31.823,20.123 -31.823,39.777 0,26.207 34.864,54.285 94.062,59.432 L 93.126,95 c -29.248,0 -43.99,-4.447 -43.99,-14.041 0,-5.615 7.488,-9.124 22.697,-16.611 12.403,-6.086 32.525,-16.614 32.525,-37.672 0,-25.74 -26.908,-58.499 -98.041,-66.687 L 0,0 Z" /></g></g></g><g
       id="g160"><g
         clip-path="url(#clipPath164)"
         id="g162"><g
           id="g168"><g
             id="g170"><path
               id="path182"
               style="fill:url(#radialGradient172);stroke:none"
               d="m 293.094,564.958 -0.838,-1.27 C 274.146,536.306 222.975,453.379 213.652,438.187 l 0,0 -1.572,-2.56 42.182,-22.557 4.002,8.212 c 3.374,6.94 7.46,15.338 9.299,18.832 l 0,0 55.261,2.991 18.045,-29.785 43.723,24.765 -1.984,2.582 c -4.535,5.9 -22.979,33.284 -42.506,62.276 l 0,0 c -15.231,22.617 -30.982,46.004 -41.214,60.794 l 0,0 -0.844,1.221 -4.95,0 z m 1.641,-67.678 c 2.047,-4.06 4.583,-8.824 7.218,-13.774 l 0,0 c 1.567,-2.943 3.151,-5.921 4.654,-8.79 l 0,0 -23.682,-1.209 c 3.71,7.611 8.113,16.52 11.81,23.773" /></g></g></g></g><g
       id="g184"><g
         clip-path="url(#clipPath188)"
         id="g186"><g
           transform="translate(287.5771,476.58)"
           id="g192"><path
             id="path194"
             style="fill:#ffffff;fill-opacity:1;fill-rule:nonzero;stroke:none"
             d="M 0,0 C 2.337,4.765 4.83,9.799 7.179,14.473 8.643,11.671 10.235,8.682 11.864,5.621 12.729,3.995 13.6,2.36 14.459,0.738 L 0,0 Z m 11.952,91.208 -2.968,0 -1.945,0 -3.043,0 L 2.317,88.67 C -15.778,61.313 -67.002,-21.702 -76.338,-36.912 l -3.142,-5.121 5.298,-2.833 36.943,-19.755 5.179,-2.77 2.577,5.279 2.754,5.655 c 2.82,5.797 6.437,13.235 8.485,17.253 l 51.95,2.811 15.74,-25.982 2.848,-4.702 4.784,2.709 38.499,21.803 5.67,3.211 -3.972,5.166 C 92.792,-28.356 74.358,-0.986 54.842,27.991 39.617,50.597 23.873,73.972 13.64,88.767 l -1.688,2.441 z M -9.293,-6.143 23.567,-4.465 C 18.123,6.157 10.734,19.389 7.234,27.028 2.567,18.084 -4.238,4.293 -9.293,-6.143 M 8.984,85.547 C 32.316,51.815 84.62,-27.015 92.787,-37.638 l -38.499,-21.804 -17.499,28.886 -58.526,-3.168 c -1.556,-2.61 -8.556,-17.145 -12.833,-25.904 l -36.943,19.754 c 5.833,9.504 59.692,96.906 78.552,125.421 l 1.945,0" /></g></g></g><g
       id="g196"><g
         clip-path="url(#clipPath200)"
         id="g198"><g
           id="g204"><g
             id="g206"><path
               id="path218"
               style="fill:url(#radialGradient208);stroke:none"
               d="m 532.2,564.948 c -6.978,-0.565 -69.925,-2.994 -80.318,-2.994 l 0,0 -2.93,0 0.1,-2.929 c 0.181,-5.223 0.563,-49.77 0.563,-53.599 l 0,0 0,-25.159 c 0,-21.474 -0.148,-47.012 -0.56,-54.29 l 0,0 -0.17,-2.991 2.997,0 c 5.294,0 28.203,-0.567 48.414,-1.067 l 0,0 c 17.59,-0.435 32.782,-0.811 35.888,-0.811 l 0,0 2.896,0 -0.887,38.202 -3.001,-0.257 c -3.581,-0.304 -11.072,-0.459 -22.268,-0.459 l 0,0 c -5.756,0 -11.302,0.041 -15.128,0.069 l 0,0 -1.59,0.009 0,16.658 c 3.052,-0.06 7.79,-0.181 12.695,-0.306 l 0,0 c 7.775,-0.197 15.969,-0.405 18.645,-0.405 l 0,0 2.884,0 -0.675,35.964 -3.029,-0.274 c -7.119,-0.647 -23.477,-1.397 -30.52,-1.615 l 0,0 0,18.734 c 2.651,0.06 6.727,0.173 11.255,0.296 l 0,0 c 9.653,0.264 21.664,0.591 25.717,0.591 l 0,0 2.901,0 -0.894,36.877 -2.985,-0.244 z" /></g></g></g></g><g
       id="g220"><g
         clip-path="url(#clipPath224)"
         id="g222"><g
           transform="translate(537.942,568.2537)"
           id="g228"><path
             id="path230"
             style="fill:#ffffff;fill-opacity:1;fill-rule:nonzero;stroke:none"
             d="M 0,0 -5.972,-0.484 C -12.931,-1.049 -75.7,-3.469 -86.06,-3.469 l -5.86,0 0.202,-5.857 c 0.179,-5.211 0.56,-49.679 0.56,-53.502 l 0,-25.16 c 0,-21.434 -0.146,-46.91 -0.555,-54.129 l -0.338,-5.981 5.991,0 c 5.258,0 28.148,-0.566 48.343,-1.066 17.61,-0.436 32.819,-0.812 35.959,-0.812 l 5.794,0 -0.135,5.793 -0.751,32.294 -0.14,6.02 -6,-0.511 c -3.501,-0.298 -10.912,-0.449 -22.027,-0.449 -5.163,0 -10.157,0.033 -13.889,0.059 l 0,10.953 c 2.845,-0.066 6.351,-0.155 9.796,-0.243 7.855,-0.2 15.978,-0.406 18.714,-0.406 l 5.768,0 -0.108,5.767 -0.563,30.041 -0.114,6.082 -6.058,-0.55 c -6.068,-0.551 -19.531,-1.203 -27.435,-1.502 l 0,13.041 c 2.361,0.06 5.278,0.14 8.503,0.228 9.635,0.263 21.624,0.591 25.64,0.591 l 5.8,0 -0.14,5.798 L 0.145,-5.99 0,0 Z m -5.514,-6.127 0.751,-30.98 c -6.947,0 -36.425,-0.937 -39.804,-0.937 l 0,-24.409 c 3.755,0 25.347,0.939 33.608,1.689 l 0.563,-30.041 c -5.069,0 -30.041,0.751 -34.171,0.751 l 0,-22.342 c 2.441,0 10.75,-0.094 19.55,-0.094 8.802,0 18.095,0.094 22.507,0.47 l 0.752,-32.295 c -6.76,0 -74.54,1.878 -84.302,1.878 0.563,9.951 0.563,50.131 0.563,54.449 l 0,25.16 c 0,3.003 -0.376,48.253 -0.563,53.698 10.513,0 73.598,2.44 80.546,3.003" /></g></g></g><g
       id="g232"><g
         clip-path="url(#clipPath236)"
         id="g234"><g
           id="g240"><g
             id="g242"><path
               id="path254"
               style="fill:url(#radialGradient244);stroke:none"
               d="m 157.298,555.13 0,-2.832 c 0,-1.28 0.115,-9.879 0.242,-19.394 l 0,0 c 0.157,-11.745 0.332,-24.887 0.332,-27.311 l 0,0 0,-20.968 c 0,-14.107 -0.386,-59.6 -0.574,-67.607 l 0,0 -0.065,-2.897 48.52,0 -0.295,3.099 c -0.234,2.458 -0.368,12.782 -0.368,28.325 l 0,0 0,2.767 c 47.776,8.69 69.198,37.059 69.198,61.668 l 0,0 c 0,19.864 -13.491,34.175 -38.006,40.304 l 0,0 c -16.74,4.035 -41.549,4.846 -76.153,4.846 l 0,0 -2.831,0 z m 47.792,-32.638 c 17.881,-2.167 20.264,-10.605 20.264,-17.849 l 0,0 c 0,-12.697 -10.961,-20.859 -20.264,-23.544 l 0,0 0,41.393 z" /></g></g></g></g><g
       id="g256"><g
         clip-path="url(#clipPath260)"
         id="g258"><g
           transform="translate(207.9201,485.1189)"
           id="g264"><path
             id="path266"
             style="fill:#ffffff;fill-opacity:1;fill-rule:nonzero;stroke:none"
             d="M 0,0 0,34.074 C 14.602,31.317 14.603,23.504 14.603,19.523 14.603,9.903 7.343,3.213 0,0 m -47.79,72.841 -5.662,0 0,-5.661 c 0,-1.315 0.112,-9.711 0.241,-19.433 0.155,-11.664 0.331,-24.884 0.331,-27.272 l 0,-20.969 c 0,-14.067 -0.383,-59.516 -0.57,-67.542 l -0.135,-5.793 5.795,0 42.51,0 6.226,0 -0.59,6.199 C 0.133,-65.292 0,-54.803 0,-39.573 l 0,0.422 c 47.75,9.48 69.198,38.63 69.198,64.011 0,21.289 -14.251,36.576 -40.126,43.047 -17.062,4.111 -42.054,4.934 -76.862,4.934 M -5.661,-7.547 c 11.056,1.716 25.926,11.247 25.926,27.07 0,10.675 -5.53,19.443 -25.926,20.968 l 0,-48.038 M -47.79,67.18 c 36.41,0 59.666,-0.953 75.488,-4.765 C 46.761,57.648 63.536,46.401 63.536,24.86 63.536,0.078 40.47,-26.801 -5.661,-34.427 l 0,-5.146 c 0,-3.812 0,-24.592 0.381,-28.594 l -42.51,0 c 0.19,8.197 0.572,54.138 0.572,67.673 l 0,20.969 c 0,4.385 -0.572,43.845 -0.572,46.705" /></g></g></g><g
       id="g268"><g
         clip-path="url(#clipPath272)"
         id="g270"><g
           id="g276"><g
             id="g278"><path
               id="path290"
               style="fill:url(#radialGradient280);stroke:none"
               d="m 457.592,555.241 c -68.69,-5.764 -103.608,-41.285 -107.741,-73.929 l 0,0 c -1.895,-14.966 3.686,-30.546 15.31,-42.744 l 0,0 c 14.121,-14.815 36.795,-24.569 65.575,-28.215 l 0,0 c 9.296,-1.175 16.587,-1.271 23.018,-1.356 l 0,0 2.67,-0.033 2.871,40.433 -4.071,0.176 c -4.518,0.19 -10.141,0.43 -17.031,1.302 l 0,0 c -11.43,1.446 -21.276,5.33 -27.725,10.933 l 0,0 c -5.863,5.098 -8.656,11.36 -7.861,17.631 l 0,0 c 2.408,19.033 23.972,30.975 59.16,32.764 l 0,0 2.972,0.152 -4.375,43.119 -2.772,-0.233 z" /></g></g></g></g><g
       id="g292"><g
         clip-path="url(#clipPath296)"
         id="g294"><g
           transform="translate(462.8996,558.5276)"
           id="g300"><path
             id="path302"
             style="fill:#ffffff;fill-opacity:1;fill-rule:nonzero;stroke:none"
             d="m 0,0 -5.544,-0.465 c -70.269,-5.896 -106.037,-42.618 -110.312,-76.396 -3.943,-31.143 20.297,-66.14 83.338,-74.12 9.485,-1.201 16.843,-1.296 23.336,-1.381 l 5.342,-0.069 0.378,5.329 2.476,34.868 0.412,5.804 -5.813,0.253 -1.164,0.05 c -4.467,0.189 -10.027,0.424 -16.8,1.282 -10.881,1.377 -20.193,5.022 -26.222,10.262 -5.128,4.457 -7.583,9.834 -6.912,15.139 2.221,17.537 22.813,28.579 56.496,30.293 l 5.946,0.302 -0.601,5.923 L 0.562,-5.535 0,0 Z m -5.071,-6.107 3.795,-37.39 c -41.156,-2.094 -59.574,-17.451 -61.825,-35.236 -1.844,-14.569 12.67,-28.517 38.039,-31.729 7.628,-0.965 13.804,-1.17 18.429,-1.371 l -2.476,-34.868 c -6.771,0.088 -13.734,0.202 -22.698,1.336 -62.563,7.92 -81.642,42.439 -78.433,67.793 3.976,31.409 37.592,65.795 105.169,71.465" /></g></g></g><g
       id="g304"><g
         clip-path="url(#clipPath308)"
         id="g306"><g
           id="g312"><g
             id="g314"><path
               id="path326"
               style="fill:url(#radialGradient316);stroke:none"
               d="M 151.097,574.487 C 88.322,569.029 54.45,538.339 54.45,512.235 l 0,0 c 0,-20.478 16.807,-32.842 33.254,-42.239 l 0,0 c 17.884,-10.155 21.499,-12.811 21.499,-15.789 l 0,0 c 0,-7.371 -19.263,-13.837 -41.222,-13.837 l 0,0 c -1.123,0 -2.243,0.019 -3.36,0.052 l 0,0 -3.417,0.106 7.276,-46.067 2.696,0.31 c 74.214,8.542 100.547,42.777 100.547,69.498 l 0,0 c 0,23.478 -23.038,34.78 -34.106,40.211 l 0,0 -1.357,0.667 c -12.321,6.063 -19.759,9.721 -19.759,13.405 l 0,0 c 0,5.114 7.141,11.211 41.159,11.211 l 0,0 3.325,0 -7.267,44.953 -2.621,-0.229 z" /></g></g></g></g><g
       id="g328"><g
         clip-path="url(#clipPath332)"
         id="g330"><g
           transform="translate(156.0927,577.7633)"
           id="g336"><path
             id="path338"
             style="fill:#ffffff;fill-opacity:1;fill-rule:nonzero;stroke:none"
             d="m 0,0 -5.24,-0.456 c -65.147,-5.664 -99.233,-37.023 -99.233,-65.072 0,-21.925 17.529,-34.896 34.676,-44.692 8.481,-4.817 20.078,-11.404 20.078,-13.337 0,-3.879 -14.576,-11.005 -38.392,-11.005 -1.093,0 -2.186,0.017 -3.272,0.051 l -6.833,0.211 1.066,-6.753 6.318,-40.011 0.846,-5.362 5.393,0.621 c 76.065,8.756 103.055,44.425 103.055,72.311 0,25.242 -24.108,37.07 -35.693,42.754 l -1.35,0.664 c -8.099,3.985 -18.179,8.943 -18.179,10.865 0,0.858 1.076,8.38 38.328,8.38 l 6.65,0 -1.061,6.565 L 0.839,-5.192 0,0 Z M -4.749,-6.096 1.568,-45.17 c -29.248,0 -43.989,-4.447 -43.989,-14.041 0,-5.615 7.487,-9.124 22.697,-16.612 12.402,-6.085 32.524,-16.613 32.524,-37.671 0,-25.74 -26.907,-58.499 -98.04,-66.687 l -6.318,40.011 c 1.145,-0.035 2.296,-0.053 3.447,-0.053 21.689,0 44.053,6.223 44.053,16.666 0,4.68 -3.978,7.488 -22.931,18.252 -14.741,8.422 -31.822,20.123 -31.822,39.777 0,26.207 34.863,54.285 94.062,59.432" /></g></g></g><g
       id="g340"><g
         clip-path="url(#clipPath344)"
         id="g342"><g
           id="g348"><g
             id="g350"><path
               id="path362"
               style="fill:url(#radialGradient352);stroke:none"
               d="M 554.374,632.771 578.321,374.14 c 3.425,-0.087 6.912,-0.135 10.471,-0.135 l 0,0 c 38.426,0 79.522,5.192 119.066,14.192 l 0,0 0,277.284 -153.484,-32.71 z" /></g></g></g></g><g
       id="g364"><g
         clip-path="url(#clipPath368)"
         id="g366"><g
           transform="translate(572.6151,374.3572)"
           id="g372"><path
             id="path374"
             style="fill:#ffffff;fill-opacity:1;fill-rule:nonzero;stroke:none"
             d="m 0,0 c 1.894,-0.077 3.768,-0.167 5.706,-0.217 l -23.947,258.631 153.484,32.71 0,-277.284 c 1.894,0.431 3.775,0.887 5.661,1.335 l 0,275.949 0,6.994 -6.841,-1.457 -153.485,-32.71 -4.92,-1.049 0.463,-5.01 L 0,0 Z" /></g><g
           transform="translate(859.3842,360.471)"
           id="g376"><path
             id="path378"
             style="fill:#231f20;fill-opacity:1;fill-rule:nonzero;stroke:none"
             d="m 0,0 c 4.606,13.643 56.428,191.815 71.685,235.152 l 4.031,0 c 16.122,-33.706 54.124,-114.766 62.473,-132.423 10.076,20.465 46.352,97.914 60.459,127.208 l 4.029,0 C 220.814,179.374 272.635,24.479 279.546,5.619 l -76.926,-30.5 C 194.271,2.409 192.601,86.678 190.586,95.907 187.42,89.486 154.599,24.881 135.023,-10.834 l -4.031,0 C 110.84,28.491 83.777,83.869 79.748,93.9 76.005,76.245 89.256,-8.829 84.361,-24.881 L 0,0 Z" /></g><g
           transform="translate(805.269,416.7585)"
           id="g380"><path
             id="path382"
             style="fill:#231f20;fill-opacity:1;fill-rule:nonzero;stroke:none"
             d="M 0,0 C -7.91,19.663 -18.351,42.135 -23.729,56.18 -30.374,39.727 -40.182,16.051 -47.459,-2.809 L 0,0 Z m -140.48,-64.607 c 8.543,17.256 85.743,177.369 114.853,229.535 l 6.011,0 C 15.504,103.131 90.807,-40.93 102.83,-60.594 l -58.218,-40.53 C 36.07,-84.671 21.516,-53.771 19.3,-49.759 l -84.477,-5.218 c -1.583,-3.21 -12.023,-30.497 -18.351,-46.549 l -56.952,36.919 z" /></g></g></g><g
       id="g384"><g
         clip-path="url(#clipPath388)"
         id="g386"><g
           id="g392"><g
             id="g394"><path
               id="path406"
               style="fill:url(#radialGradient396);stroke:none"
               d="m 904.533,617.324 -0.664,-1.891 C 893.546,586.118 866.57,495.369 848.716,435.317 l 0,0 C 840.298,407 833.648,384.635 832.167,380.248 l 0,0 -0.94,-2.79 89.877,-26.504 0.818,2.683 c 2.713,8.901 0.394,35.28 -2.056,63.205 l 0,0 c -1.445,16.458 -2.927,33.305 -3.1,44.681 l 0,0 c 9.66,-20.655 30.547,-63.06 46.562,-94.303 l 0,0 0.789,-1.541 7.434,0 0.804,1.471 c 16.231,29.61 41.04,78.047 51.235,98.143 l 0,0 c 0.335,-4.822 0.689,-11.002 1.073,-17.642 l 0,0 c 1.717,-29.908 4.315,-75.102 10.102,-94.018 l 0,0 0.896,-2.933 82.346,32.648 -0.95,2.587 c -2.883,7.874 -13.844,40.192 -26.538,77.614 l 0,0 c -17.724,52.255 -39.78,117.287 -50.325,146.686 l 0,0 -0.674,1.874 -7.8,0 -0.77,-1.601 c -6.306,-13.098 -17.042,-35.817 -27.89,-58.768 l 0,0 c -11.54,-24.412 -23.415,-49.547 -29.98,-63.122 l 0,0 c -2.694,5.719 -6.534,13.884 -11.031,23.449 l 0,0 c -14.931,31.754 -37.495,79.743 -48.928,103.649 l 0,0 -0.77,1.608 -7.818,0 z" /></g></g></g></g><g
       id="g408"><g
         clip-path="url(#clipPath412)"
         id="g410"><g
           transform="translate(914.1362,620.1555)"
           id="g416"><path
             id="path418"
             style="fill:#ffffff;fill-opacity:1;fill-rule:nonzero;stroke:none"
             d="m 0,0 -3.568,0 -4.031,0 -4.009,0 -1.331,-3.781 c -10.345,-29.384 -37.334,-120.175 -55.194,-180.253 -8.409,-28.288 -15.051,-50.633 -16.515,-54.968 l -1.883,-5.577 5.645,-1.664 84.361,-24.881 5.381,-1.587 1.636,5.366 c 2.682,8.793 1.055,30.148 -1.943,64.275 -0.899,10.231 -1.853,21.091 -2.463,30.573 10.83,-22.546 27.368,-55.944 40.584,-81.733 l 1.577,-3.079 3.461,0 4.031,0 3.353,0 1.611,2.94 c 14.11,25.743 34.719,65.744 46.574,88.987 0.139,-2.353 0.28,-4.801 0.422,-7.277 1.727,-30.045 4.336,-75.45 10.223,-94.691 l 1.795,-5.869 5.705,2.262 76.926,30.5 5.126,2.032 -1.897,5.178 c -2.872,7.838 -13.828,40.141 -26.514,77.545 -17.726,52.267 -39.787,117.314 -50.341,146.737 l -1.345,3.75 -3.984,0 -4.03,0 -3.557,0 -1.543,-3.205 C 107.957,-21.516 97,-44.701 86.403,-67.122 76.235,-88.639 65.801,-110.716 58.974,-124.951 c -2.407,5.113 -5.35,11.374 -8.64,18.37 C 35.443,-74.914 12.941,-27.058 1.539,-3.219 L 0,0 Z m -3.568,-5.661 c 16.121,-33.706 54.124,-114.767 62.473,-132.423 10.076,20.465 46.351,97.913 60.458,127.207 l 4.03,0 c 18.137,-50.563 69.958,-205.458 76.868,-224.318 l -76.926,-30.499 c -8.349,27.289 -10.018,111.558 -12.034,120.787 -3.166,-6.42 -35.987,-71.026 -55.562,-106.741 l -4.031,0 c -20.153,39.325 -47.215,94.704 -51.245,104.734 -3.742,-17.654 9.509,-102.729 4.614,-118.78 l -84.361,24.881 c 4.606,13.642 56.427,191.815 71.685,235.152 l 4.031,0" /></g></g></g><g
       id="g420"><g
         clip-path="url(#clipPath424)"
         id="g422"><g
           id="g428"><g
             id="g430"><path
               id="path442"
               style="fill:url(#radialGradient432);stroke:none"
               d="m 753.447,603.389 -0.811,-1.453 C 728.281,558.288 671.314,441.249 646.988,391.272 l 0,0 c -4.6,-9.453 -7.862,-16.154 -9.266,-18.992 l 0,0 -1.12,-2.259 61.972,-40.176 1.268,3.219 c 2.141,5.429 4.751,12.14 7.33,18.771 l 0,0 c 4.199,10.799 8.518,21.912 10.28,26.098 l 0,0 80.924,4.999 c 1.36,-2.705 3.896,-7.951 6.741,-13.826 l 0,0 c 5.337,-11.028 12.646,-26.131 17.718,-35.906 l 0,0 1.485,-2.86 63.056,43.897 -1.394,2.278 c -5.495,8.986 -24.583,44.672 -46.691,85.998 l 0,0 c -26.599,49.72 -56.745,106.076 -75.709,139.444 l 0,0 -0.814,1.432 -9.321,0 z m 0.04,-127.755 c 1.21,2.966 2.382,5.844 3.498,8.589 l 0,0 c 2.514,-6.109 5.577,-13.163 8.773,-20.512 l 0,0 c 3.663,-8.435 7.437,-17.123 10.869,-25.488 l 0,0 -39.113,-2.314 c 4.942,12.655 10.769,26.957 15.973,39.725" /></g></g></g></g><g
       id="g444"><g
         clip-path="url(#clipPath448)"
         id="g446"><g
           transform="translate(741.7646,438.9944)"
           id="g452"><path
             id="path454"
             style="fill:#ffffff;fill-opacity:1;fill-rule:nonzero;stroke:none"
             d="m 0,0 c 4.557,11.555 9.693,24.156 14.331,35.536 0.312,0.765 0.621,1.523 0.927,2.275 1.904,-4.48 3.992,-9.285 6.137,-14.223 3.126,-7.196 6.332,-14.573 9.333,-21.77 L 0,0 Z m 22.651,167.224 -3.294,0 -6.012,0 -3.324,0 -1.62,-2.903 C -15.997,120.599 -72.99,3.505 -97.328,-46.496 c -4.593,-9.438 -7.851,-16.131 -9.254,-18.964 l -2.237,-4.52 4.231,-2.743 56.953,-36.918 5.807,-3.765 2.539,6.439 c 2.139,5.426 4.747,12.134 7.325,18.764 3.426,8.81 7.503,19.294 9.591,24.426 l 77.284,4.773 c 1.422,-2.878 3.543,-7.263 5.873,-12.077 5.35,-11.054 12.676,-26.194 17.776,-36.016 l 2.969,-5.721 5.29,3.683 58.218,40.53 4.378,3.048 -2.783,4.552 C 141.179,-52.086 122.1,-16.42 100.007,24.878 73.406,74.606 43.256,130.967 24.279,164.36 l -1.628,2.864 z M -8.487,-6.173 38.972,-3.365 C 31.062,16.298 20.621,38.77 15.243,52.815 8.598,36.362 -1.21,12.686 -8.487,-6.173 M 19.357,161.563 C 54.476,99.766 129.78,-44.295 141.802,-63.959 l -58.218,-40.53 c -8.541,16.453 -23.096,47.353 -25.312,51.365 l -84.477,-5.217 c -1.583,-3.211 -12.023,-30.498 -18.351,-46.55 l -56.952,36.919 c 8.543,17.256 85.743,177.369 114.853,229.535 l 6.012,0" /></g></g></g><g
       id="g456"><g
         clip-path="url(#clipPath460)"
         id="g458"><g
           id="g464"><g
             id="g466"><path
               id="path478"
               style="fill:url(#radialGradient468);stroke:none"
               d="m 369.559,268.191 c 0,0 133.15,-126.347 220.653,-126.347 l 0,0 c 1.334,0 2.653,0.03 3.965,0.09 l 0,0 c 62.245,2.825 87.805,80.867 97.364,125.541 l 0,0 C 656.243,255.816 620.599,246.259 585.264,239.01 l 0,0 c -1.979,-8.823 -6.411,-15.776 -15.494,-15.776 l 0,0 c -1.592,0 -3.322,0.213 -5.211,0.665 l 0,0 c -31.451,7.549 -83.032,130.84 -83.032,130.84 l 0,0 -111.968,-86.548 z" /></g></g></g></g><g
       id="g480"><g
         clip-path="url(#clipPath484)"
         id="g482"><g
           transform="translate(691.5408,267.4751)"
           id="g488"><path
             id="path490"
             style="fill:#ffffff;fill-opacity:1;fill-rule:nonzero;stroke:none"
             d="m 0,0 c -9.558,-44.674 -35.119,-122.717 -97.363,-125.542 -1.312,-0.059 -2.632,-0.089 -3.966,-0.089 -87.503,0 -220.653,126.347 -220.653,126.347 l 111.968,86.547 c 0,0 51.581,-123.29 83.032,-130.839 1.889,-0.453 3.619,-0.665 5.211,-0.665 9.083,0 13.515,6.952 15.494,15.776 -2.06,-0.422 -4.123,-0.859 -6.18,-1.266 -0.734,-2.404 -1.702,-4.457 -2.96,-5.977 -1.644,-1.986 -3.604,-2.872 -6.354,-2.872 -1.172,0 -2.481,0.171 -3.89,0.51 -20.87,5.008 -59.613,80.875 -79.131,127.519 l -2.847,6.805 -5.838,-4.511 -111.967,-86.547 -5.226,-4.04 4.791,-4.546 c 5.504,-5.223 135.809,-127.902 224.55,-127.902 1.421,0 2.825,0.031 4.222,0.095 68.109,3.091 94.279,87.885 103.436,133.335 C 4.219,1.426 2.112,0.698 0,0" /></g></g></g></g></svg>